REM DIRINDEX 1\2,1\3,1\4,1\6,1\5\7,1\5\8
REM DIRNAME cjc114,folder01,folder02,folder03,folder04,folder05,folder06,folder07
TITLE ""
FILE "DB4500_5th_1A_11.mp3" MP3
  TRACK 01 AUDIO
    TITLE "0:"
    INDEX 01 00:00:00
  TRACK 02 AUDIO
    TITLE "2:cjc114_0273"
    INDEX 01 00:00:05
  TRACK 03 AUDIO
    TITLE "0:"
    INDEX 01 00:01:13
  TRACK 04 AUDIO
    TITLE "3:cjc114_0274"
    INDEX 01 00:01:38
  TRACK 05 AUDIO
    TITLE "0:"
    INDEX 01 00:02:61
  TRACK 06 AUDIO
    TITLE "4:cjc114_0275"
    INDEX 01 00:03:12
  TRACK 07 AUDIO
    TITLE "0:"
    INDEX 01 00:06:61
  TRACK 08 AUDIO
    TITLE "2:cjc114_0276"
    INDEX 01 00:07:37
  TRACK 09 AUDIO
    TITLE "0:"
    INDEX 01 00:08:36
  TRACK 10 AUDIO
    TITLE "3:cjc114_0277"
    INDEX 01 00:08:62
  TRACK 11 AUDIO
    TITLE "0:"
    INDEX 01 00:10:00
  TRACK 12 AUDIO
    TITLE "4:cjc114_0278"
    INDEX 01 00:10:23
  TRACK 13 AUDIO
    TITLE "0:"
    INDEX 01 00:13:71
  TRACK 14 AUDIO
    TITLE "2:cjc114_0279"
    INDEX 01 00:14:47
  TRACK 15 AUDIO
    TITLE "0:"
    INDEX 01 00:15:54
  TRACK 16 AUDIO
    TITLE "3:cjc114_0280"
    INDEX 01 00:16:04
  TRACK 17 AUDIO
    TITLE "0:"
    INDEX 01 00:17:16
  TRACK 18 AUDIO
    TITLE "4:cjc114_0281"
    INDEX 01 00:17:39
  TRACK 19 AUDIO
    TITLE "0:"
    INDEX 01 00:21:31
  TRACK 20 AUDIO
    TITLE "2:cjc114_0282"
    INDEX 01 00:22:03
  TRACK 21 AUDIO
    TITLE "0:"
    INDEX 01 00:23:04
  TRACK 22 AUDIO
    TITLE "3:cjc114_0283"
    INDEX 01 00:23:28
  TRACK 23 AUDIO
    TITLE "0:"
    INDEX 01 00:24:41
  TRACK 24 AUDIO
    TITLE "4:cjc114_0284"
    INDEX 01 00:24:63
  TRACK 25 AUDIO
    TITLE "0:"
    INDEX 01 00:27:67
  TRACK 26 AUDIO
    TITLE "2:cjc114_0285"
    INDEX 01 00:28:39
  TRACK 27 AUDIO
    TITLE "0:"
    INDEX 01 00:29:62
  TRACK 28 AUDIO
    TITLE "3:cjc114_0286"
    INDEX 01 00:30:10
  TRACK 29 AUDIO
    TITLE "0:"
    INDEX 01 00:31:26
  TRACK 30 AUDIO
    TITLE "4:cjc114_0287"
    INDEX 01 00:31:49
  TRACK 31 AUDIO
    TITLE "0:"
    INDEX 01 00:35:41
  TRACK 32 AUDIO
    TITLE "2:cjc114_0288"
    INDEX 01 00:36:15
  TRACK 33 AUDIO
    TITLE "0:"
    INDEX 01 00:37:18
  TRACK 34 AUDIO
    TITLE "3:cjc114_0289"
    INDEX 01 00:37:42
  TRACK 35 AUDIO
    TITLE "0:"
    INDEX 01 00:38:63
  TRACK 36 AUDIO
    TITLE "4:cjc114_0290"
    INDEX 01 00:39:11
  TRACK 37 AUDIO
    TITLE "0:"
    INDEX 01 00:43:11
  TRACK 38 AUDIO
    TITLE "2:cjc114_0291"
    INDEX 01 00:43:60
  TRACK 39 AUDIO
    TITLE "0:"
    INDEX 01 00:44:67
  TRACK 40 AUDIO
    TITLE "3:cjc114_0292"
    INDEX 01 00:45:16
  TRACK 41 AUDIO
    TITLE "0:"
    INDEX 01 00:46:39
  TRACK 42 AUDIO
    TITLE "4:cjc114_0293"
    INDEX 01 00:46:60
  TRACK 43 AUDIO
    TITLE "0:"
    INDEX 01 00:51:69
  TRACK 44 AUDIO
    TITLE "2:cjc114_0294"
    INDEX 01 00:52:55
  TRACK 45 AUDIO
    TITLE "0:"
    INDEX 01 00:53:51
  TRACK 46 AUDIO
    TITLE "3:cjc114_0295"
    INDEX 01 00:54:05
  TRACK 47 AUDIO
    TITLE "0:"
    INDEX 01 00:55:28
  TRACK 48 AUDIO
    TITLE "4:cjc114_0296"
    INDEX 01 00:55:57
  TRACK 49 AUDIO
    TITLE "0:"
    INDEX 01 00:58:22
  TRACK 50 AUDIO
    TITLE "4:cjc114_0297"
    INDEX 01 00:59:04
  TRACK 51 AUDIO
    TITLE "0:"
    INDEX 01 01:02:24
  TRACK 52 AUDIO
    TITLE "2:cjc114_0298"
    INDEX 01 01:03:02
  TRACK 53 AUDIO
    TITLE "0:"
    INDEX 01 01:04:11
  TRACK 54 AUDIO
    TITLE "3:cjc114_0299"
    INDEX 01 01:04:39
  TRACK 55 AUDIO
    TITLE "0:"
    INDEX 01 01:05:50
  TRACK 56 AUDIO
    TITLE "4:cjc114_0300"
    INDEX 01 01:06:04
  TRACK 57 AUDIO
    TITLE "0:"
    INDEX 01 01:09:69
  TRACK 58 AUDIO
    TITLE "2:cjc114_0301"
    INDEX 01 01:10:49
  TRACK 59 AUDIO
    TITLE "0:"
    INDEX 01 01:11:54
  TRACK 60 AUDIO
    TITLE "3:cjc114_0302"
    INDEX 01 01:12:09
  TRACK 61 AUDIO
    TITLE "0:"
    INDEX 01 01:13:32
  TRACK 62 AUDIO
    TITLE "4:cjc114_0303"
    INDEX 01 01:13:59
  TRACK 63 AUDIO
    TITLE "0:"
    INDEX 01 01:16:54
  TRACK 64 AUDIO
    TITLE "2:cjc114_0304"
    INDEX 01 01:17:33
  TRACK 65 AUDIO
    TITLE "0:"
    INDEX 01 01:18:43
  TRACK 66 AUDIO
    TITLE "3:cjc114_0305"
    INDEX 01 01:18:72
  TRACK 67 AUDIO
    TITLE "0:"
    INDEX 01 01:20:40
  TRACK 68 AUDIO
    TITLE "4:cjc114_0306"
    INDEX 01 01:20:67
  TRACK 69 AUDIO
    TITLE "0:"
    INDEX 01 01:24:41
  TRACK 70 AUDIO
    TITLE "2:cjc114_0307"
    INDEX 01 01:25:19
  TRACK 71 AUDIO
    TITLE "0:"
    INDEX 01 01:26:27
  TRACK 72 AUDIO
    TITLE "3:cjc114_0308"
    INDEX 01 01:26:54
  TRACK 73 AUDIO
    TITLE "0:"
    INDEX 01 01:28:06
  TRACK 74 AUDIO
    TITLE "4:cjc114_0309"
    INDEX 01 01:28:35
  TRACK 75 AUDIO
    TITLE "0:"
    INDEX 01 01:30:52
